HIERARCHY
ROOT Hips
{
  OFFSET 0.0000 90.3781 0.0000
  CHANNELS 6 Xposition Yposition Zposition Yrotation Xrotation Zrotation
  JOINT Spine
  {
    OFFSET 0.0000 8.4838 -3.9483
    CHANNELS 3 Yrotation Xrotation Zrotation
    JOINT Spine1
    {
      OFFSET 0.0000 -7.5500 0.0000
      CHANNELS 3 Yrotation Xrotation Zrotation
      JOINT Spine2
      {
        OFFSET 0.0000 -7.5500 0.0000
        CHANNELS 3 Yrotation Xrotation Zrotation
        JOINT Spine3
        {
          OFFSET 0.0000 -12.7487 0.0000
          CHANNELS 3 Yrotation Xrotation Zrotation
          JOINT Neck
          {
            OFFSET 0.0000 -20.1503 0.0000
            CHANNELS 3 Yrotation Xrotation Zrotation
            JOINT Head
            {
              OFFSET 0.0000 -11.1009 0.0000
              CHANNELS 3 Yrotation Xrotation Zrotation
              JOINT HeadTip
              {
                OFFSET 0.0000 -16.8536 0.0000
                CHANNELS 3 Yrotation Xrotation Zrotation
                End Site
                {
                  OFFSET 0.0000 -8.4268 0.0000
                }
              }
            }
          }
          JOINT RightShoulder
          {
            OFFSET 7.0000 -12.3681 1.9038
            CHANNELS 3 Yrotation Xrotation Zrotation
            JOINT RightArm
            {
              OFFSET 0.0000 -13.6078 0.0000
              CHANNELS 3 Yrotation Xrotation Zrotation
              JOINT RightForeArm
              {
                OFFSET 0.0000 -27.1022 0.0000
                CHANNELS 3 Yrotation Xrotation Zrotation
                JOINT RightHand
                {
                  OFFSET 0.0000 -28.3000 0.0000
                  CHANNELS 3 Yrotation Xrotation Zrotation
                  JOINT RightHandThumb1
                  {
                    OFFSET -2.7849 -2.0780 0.1030
                    CHANNELS 3 Yrotation Xrotation Zrotation
                    JOINT RightFinger1Proximal
                    {
                      OFFSET 0.0000 -3.9891 0.0000
                      CHANNELS 3 Yrotation Xrotation Zrotation
                      JOINT RightFinger1Distal
                      {
                        OFFSET 0.0000 -3.0278 0.0000
                        CHANNELS 3 Yrotation Xrotation Zrotation
                        JOINT RightFinger1Tip
                        {
                          OFFSET 0.0000 -3.4590 0.0000
                          CHANNELS 3 Yrotation Xrotation Zrotation
                          End Site
                          {
                            OFFSET 0.0000 -1.7295 0.0000
                          }
                        }
                      }
                    }
                  }
                  JOINT RightHandEnd
                  {
                    OFFSET 1.4876 -2.4879 0.1030
                    CHANNELS 3 Yrotation Xrotation Zrotation
                    JOINT RightFinger5Proximal
                    {
                      OFFSET 0.0000 -4.7463 0.0000
                      CHANNELS 3 Yrotation Xrotation Zrotation
                      JOINT RightFinger5Medial
                      {
                        OFFSET 0.0000 -3.5000 0.0000
                        CHANNELS 3 Yrotation Xrotation Zrotation
                        JOINT RightFinger5Distal
                        {
                          OFFSET 0.0000 -2.2000 0.0000
                          CHANNELS 3 Yrotation Xrotation Zrotation
                          JOINT RightFinger5Tip
                          {
                            OFFSET 0.0000 -2.2409 0.0000
                            CHANNELS 3 Yrotation Xrotation Zrotation
                            End Site
                            {
                              OFFSET 0.0000 -1.1205 0.0000
                            }
                          }
                        }
                      }
                    }
                  }
                  JOINT RightFinger4Metacarpal
                  {
                    OFFSET 0.5475 -2.7430 0.1030
                    CHANNELS 3 Yrotation Xrotation Zrotation
                    JOINT RightFinger4Proximal
                    {
                      OFFSET 0.0000 -5.0325 0.0000
                      CHANNELS 3 Yrotation Xrotation Zrotation
                      JOINT RightFinger4Medial
                      {
                        OFFSET 0.0000 -4.3000 0.0000
                        CHANNELS 3 Yrotation Xrotation Zrotation
                        JOINT RightFinger4Distal
                        {
                          OFFSET 0.0000 -2.7732 0.0000
                          CHANNELS 3 Yrotation Xrotation Zrotation
                          JOINT RightFinger4Tip
                          {
                            OFFSET 0.0000 -2.7000 0.0000
                            CHANNELS 3 Yrotation Xrotation Zrotation
                            End Site
                            {
                              OFFSET 0.0000 -1.3500 0.0000
                            }
                          }
                        }
                      }
                    }
                  }
                  JOINT RightFinger3Metacarpal
                  {
                    OFFSET -0.5447 -2.7674 0.1030
                    CHANNELS 3 Yrotation Xrotation Zrotation
                    JOINT RightFinger3Proximal
                    {
                      OFFSET 0.0000 -5.3650 0.0000
                      CHANNELS 3 Yrotation Xrotation Zrotation
                      JOINT RightFinger3Medial
                      {
                        OFFSET 0.0000 -4.7000 0.0000
                        CHANNELS 3 Yrotation Xrotation Zrotation
                        JOINT RightFinger3Distal
                        {
                          OFFSET 0.0000 -3.1000 0.0000
                          CHANNELS 3 Yrotation Xrotation Zrotation
                          JOINT RightFinger3Tip
                          {
                            OFFSET 0.0000 -2.9982 0.0000
                            CHANNELS 3 Yrotation Xrotation Zrotation
                            End Site
                            {
                              OFFSET 0.0000 -1.4991 0.0000
                            }
                          }
                        }
                      }
                    }
                  }
                  JOINT RightFinger2Metacarpal
                  {
                    OFFSET -1.6034 -2.6456 0.1030
                    CHANNELS 3 Yrotation Xrotation Zrotation
                    JOINT RightFinger2Proximal
                    {
                      OFFSET 0.0000 -5.4138 0.0000
                      CHANNELS 3 Yrotation Xrotation Zrotation
                      JOINT RightFinger2Medial
                      {
                        OFFSET 0.0000 -4.5000 0.0000
                        CHANNELS 3 Yrotation Xrotation Zrotation
                        JOINT RightFinger2Distal
                        {
                          OFFSET 0.0000 -2.7685 0.0000
                          CHANNELS 3 Yrotation Xrotation Zrotation
                          JOINT RightFinger2Tip
                          {
                            OFFSET 0.0000 -2.7132 0.0000
                            CHANNELS 3 Yrotation Xrotation Zrotation
                            End Site
                            {
                              OFFSET 0.0000 -1.3566 0.0000
                            }
                          }
                        }
                      }
                    }
                  }
                }
              }
            }
          }
          JOINT LeftShoulder
          {
            OFFSET -7.0000 -12.3681 1.9038
            CHANNELS 3 Yrotation Xrotation Zrotation
            JOINT LeftArm
            {
              OFFSET 0.0000 -13.6078 0.0000
              CHANNELS 3 Yrotation Xrotation Zrotation
              JOINT LeftForeArm
              {
                OFFSET 0.0001 -27.1022 0.0000
                CHANNELS 3 Yrotation Xrotation Zrotation
                JOINT LeftHand
                {
                  OFFSET 0.0000 -28.3000 0.0000
                  CHANNELS 3 Yrotation Xrotation Zrotation
                  JOINT LeftHandEnd
                  {
                    OFFSET -1.4876 -2.4879 0.1030
                    CHANNELS 3 Yrotation Xrotation Zrotation
                    JOINT LeftFinger5Proximal
                    {
                      OFFSET 0.0000 -4.7463 0.0000
                      CHANNELS 3 Yrotation Xrotation Zrotation
                      JOINT LeftFinger5Medial
                      {
                        OFFSET 0.0000 -3.5000 0.0000
                        CHANNELS 3 Yrotation Xrotation Zrotation
                        JOINT LeftFinger5Distal
                        {
                          OFFSET 0.0000 -2.2000 0.0000
                          CHANNELS 3 Yrotation Xrotation Zrotation
                          JOINT LeftFinger5Tip
                          {
                            OFFSET 0.0000 -2.2409 0.0000
                            CHANNELS 3 Yrotation Xrotation Zrotation
                            End Site
                            {
                              OFFSET 0.0000 -1.1205 0.0000
                            }
                          }
                        }
                      }
                    }
                  }
                  JOINT LeftFinger4Metacarpal
                  {
                    OFFSET -0.5475 -2.7430 0.1030
                    CHANNELS 3 Yrotation Xrotation Zrotation
                    JOINT LeftFinger4Proximal
                    {
                      OFFSET 0.0000 -5.0325 0.0000
                      CHANNELS 3 Yrotation Xrotation Zrotation
                      JOINT LeftFinger4Medial
                      {
                        OFFSET 0.0000 -4.3000 0.0000
                        CHANNELS 3 Yrotation Xrotation Zrotation
                        JOINT LeftFinger4Distal
                        {
                          OFFSET 0.0000 -2.7732 0.0000
                          CHANNELS 3 Yrotation Xrotation Zrotation
                          JOINT LeftFinger4Tip
                          {
                            OFFSET 0.0000 -2.7000 0.0000
                            CHANNELS 3 Yrotation Xrotation Zrotation
                            End Site
                            {
                              OFFSET 0.0000 -1.3500 0.0000
                            }
                          }
                        }
                      }
                    }
                  }
                  JOINT LeftFinger3Metacarpal
                  {
                    OFFSET 0.5447 -2.7674 0.1030
                    CHANNELS 3 Yrotation Xrotation Zrotation
                    JOINT LeftFinger3Proximal
                    {
                      OFFSET 0.0000 -5.3650 0.0000
                      CHANNELS 3 Yrotation Xrotation Zrotation
                      JOINT LeftFinger3Medial
                      {
                        OFFSET 0.0000 -4.7000 0.0000
                        CHANNELS 3 Yrotation Xrotation Zrotation
                        JOINT LeftFinger3Distal
                        {
                          OFFSET 0.0000 -3.1000 0.0000
                          CHANNELS 3 Yrotation Xrotation Zrotation
                          JOINT LeftFinger3Tip
                          {
                            OFFSET 0.0000 -2.9982 0.0000
                            CHANNELS 3 Yrotation Xrotation Zrotation
                            End Site
                            {
                              OFFSET 0.0000 -1.4991 0.0000
                            }
                          }
                        }
                      }
                    }
                  }
                  JOINT LeftFinger2Metacarpal
                  {
                    OFFSET 1.6034 -2.6456 0.1030
                    CHANNELS 3 Yrotation Xrotation Zrotation
                    JOINT LeftFinger2Proximal
                    {
                      OFFSET 0.0000 -5.4138 0.0000
                      CHANNELS 3 Yrotation Xrotation Zrotation
                      JOINT LeftFinger2Medial
                      {
                        OFFSET 0.0000 -4.5000 0.0000
                        CHANNELS 3 Yrotation Xrotation Zrotation
                        JOINT LeftFinger2Distal
                        {
                          OFFSET 0.0000 -2.7685 0.0000
                          CHANNELS 3 Yrotation Xrotation Zrotation
                          JOINT LeftFinger2Tip
                          {
                            OFFSET 0.0000 -2.7131 0.0000
                            CHANNELS 3 Yrotation Xrotation Zrotation
                            End Site
                            {
                              OFFSET 0.0000 -1.3566 0.0000
                            }
                          }
                        }
                      }
                    }
                  }
                  JOINT LeftHandThumb1
                  {
                    OFFSET 2.7849 -2.0780 0.1030
                    CHANNELS 3 Yrotation Xrotation Zrotation
                    JOINT LeftFinger1Proximal
                    {
                      OFFSET 0.0000 -3.9891 0.0000
                      CHANNELS 3 Yrotation Xrotation Zrotation
                      JOINT LeftFinger1Distal
                      {
                        OFFSET 0.0000 -3.0278 0.0000
                        CHANNELS 3 Yrotation Xrotation Zrotation
                        JOINT LeftFinger1Tip
                        {
                          OFFSET 0.0000 -3.4590 0.0000
                          CHANNELS 3 Yrotation Xrotation Zrotation
                          End Site
                          {
                            OFFSET 0.0000 -1.7295 0.0000
                          }
                        }
                      }
                    }
                  }
                }
              }
            }
          }
        }
      }
    }
  }
  JOINT RightUpLeg
  {
    OFFSET -8.1000 0.0000 0.0000
    CHANNELS 3 Yrotation Xrotation Zrotation
    JOINT RightLeg
    {
      OFFSET 0.0000 -43.2000 0.0000
      CHANNELS 3 Yrotation Xrotation Zrotation
      JOINT RightFoot
      {
        OFFSET 0.0000 -43.3000 -0.0626
        CHANNELS 3 Yrotation Xrotation Zrotation
        JOINT RightToeBase
        {
          OFFSET 0.0000 -13.1694 6.2394
          CHANNELS 3 Yrotation Xrotation Zrotation
          JOINT RightToeTip
          {
            OFFSET 0.0000 -7.4457 1.2571
            CHANNELS 3 Yrotation Xrotation Zrotation
            End Site
            {
              OFFSET 0.0000 -3.7228 0.6286
            }
          }
        }
      }
    }
  }
  JOINT LeftUpLeg
  {
    OFFSET 8.1000 0.0000 0.0000
    CHANNELS 3 Yrotation Xrotation Zrotation
    JOINT LeftLeg
    {
      OFFSET 0.0000 -43.2000 0.0000
      CHANNELS 3 Yrotation Xrotation Zrotation
      JOINT LeftFoot
      {
        OFFSET 0.0000 -43.3000 -0.0626
        CHANNELS 3 Yrotation Xrotation Zrotation
        JOINT LeftToeBase
        {
          OFFSET 0.0000 -13.1694 6.2394
          CHANNELS 3 Yrotation Xrotation Zrotation
          JOINT LeftToeTip
          {
            OFFSET 0.0000 -7.4457 1.2571
            CHANNELS 3 Yrotation Xrotation Zrotation
            End Site
            {
              OFFSET 0.0000 -3.7228 0.6286
            }
          }
        }
      }
    }
  }
}
MOTION
Frames: 4
Frame Time: 0.033333
1.5352 102.5402 50.1976 50.1361 -8.9852 -22.6722 -0.9280 6.2081 -175.6927 0.9311 -6.2361 4.3265 0.9301 -6.2269 4.3202 0.0000 0.0000 0.0000 5.7981 -10.0716 7.1050 5.7981 -10.0716 7.1050 0.0000 0.0000 0.0000 27.3755 1.8274 78.6335 76.2942 -39.3054 -12.4799 -0.5596 -3.3983 -108.1495 3.4272 0.1932 -8.0825 96.1041 33.7535 -38.5317 -2.5747 -14.8951 9.9227 0.0000 -10.0773 0.0000 0.0000 0.0003 0.0000 -6.1094 -4.3340 28.7041 -170.4735 -74.5887 167.0237 7.4125 -22.0138 -19.1412 0.0000 -15.4579 0.0000 0.0000 0.0000 0.0000 -2.7938 -2.3590 14.1978 -132.5485 -75.2804 129.5200 13.2759 -56.2180 -15.8479 0.0000 -38.3375 0.0000 0.0000 0.0000 0.0000 0.0000 0.0000 0.0000 -61.8660 -72.8108 63.4523 -18.9204 -74.7011 19.5636 0.0000 -50.7846 0.0000 0.0000 0.0000 0.0000 1.2125 0.3039 -14.0690 -13.3527 -70.5383 16.4681 -13.0351 -53.0797 16.1501 0.0000 -36.2731 0.0000 0.0000 0.0000 0.0000 -1.8300 16.4278 -70.9378 151.3150 -70.9240 146.2399 -43.5062 23.0277 117.1071 -6.3095 41.1170 11.7626 6.1094 -4.3340 -28.7041 -67.5980 -81.2732 66.3887 -5.4236 -49.6016 7.1064 0.0000 -33.3311 0.0000 0.0000 0.0000 0.0000 2.7938 -2.3590 -14.1978 -131.9682 -83.8342 133.4057 7.2253 -63.1917 -8.0845 0.0000 -42.5271 0.0000 0.0000 0.0000 0.0000 0.0000 0.0000 0.0000 -1.2311 -90.0000 0.0000 -5.4558 -74.5166 5.6599 0.0000 -50.1301 0.0000 0.0000 0.0000 0.0000 -1.2125 0.3039 14.0690 -101.8999 -83.2298 101.5751 9.2551 -44.9244 -12.9938 0.0000 -30.5357 0.0000 0.0002 0.0000 0.0000 -73.8015 42.5705 63.4256 0.8403 -34.1877 -1.4952 0.0000 -22.8358 0.0000 0.0000 0.0004 0.0000 48.0357 1.6113 -101.2459 -3.4282 6.8869 98.1757 79.0461 79.5586 -18.3700 0.0000 0.0880 -0.0036 0.0000 0.0000 0.0000 -84.2568 19.6239 13.2759 -0.6814 0.8510 -41.5634 -79.6661 70.9915 -2.2083 0.0000 -2.3045 -0.5007 0.0000 0.0000 0.0000 
2.6969 99.2857 51.6874 57.9070 -3.6312 -20.7039 -2.7931 5.2277 -175.8910 2.8037 -5.2494 4.1253 2.8009 -5.2437 4.1210 0.0000 0.0000 0.0000 7.5034 -9.2281 7.1189 7.5034 -9.2281 7.1189 0.0000 0.0000 0.0000 27.0939 2.4538 79.9962 75.4064 -39.3082 -0.7471 1.1838 -0.3972 -101.3203 3.3541 2.2945 -8.3086 96.3325 34.1255 -38.3827 -2.7681 -15.6276 10.1754 0.0000 -10.5803 0.0000 0.0000 0.0003 0.0000 -6.1094 -4.3340 28.7041 -167.6063 -74.6979 164.2065 6.7927 -21.0874 -18.3178 0.0000 -14.7482 0.0000 0.0000 0.0000 0.0000 -2.7938 -2.3590 14.1978 -128.8569 -75.0616 125.7614 11.4492 -56.0916 -13.7139 0.0000 -38.0795 0.0000 0.0000 0.0000 0.0000 0.0000 0.0000 0.0000 -61.5399 -72.4762 63.4021 -19.6012 -73.4363 20.3813 0.0000 -50.0158 0.0000 0.0000 0.0000 0.0000 1.2125 0.3039 -14.0690 -13.0976 -70.3387 16.4544 -13.9654 -52.1694 17.4773 0.0000 -35.7951 0.0000 0.0000 0.0000 0.0000 -1.6914 15.1898 -73.1605 156.3355 -71.6169 141.5966 -48.1895 26.8770 116.7729 -7.7923 41.4325 10.2347 6.1094 -4.3340 -28.7041 -65.7723 -81.0660 64.4596 -5.5886 -48.5277 7.4403 0.0000 -32.6227 0.0000 0.0000 0.0000 0.0000 2.7938 -2.3590 -14.1978 -125.1272 -84.4895 126.5914 7.8920 -62.5687 -8.8767 0.0000 -42.1394 0.0000 0.0000 0.0000 0.0000 0.0000 0.0000 0.0000 -0.9417 -90.0000 0.0000 -2.9162 -73.8782 3.0353 -0.0002 -49.6594 0.0002 0.0000 0.0000 0.0000 -1.2125 0.3039 14.0690 -85.6337 -83.2583 84.9490 9.6290 -45.4436 -13.3926 0.0000 -30.9162 0.0000 0.0002 0.0000 0.0000 -70.9124 43.4163 64.0528 -0.0830 -35.1340 0.1442 -0.0003 -23.4638 0.0007 0.0000 0.0004 0.0000 37.8355 9.5924 -108.1445 -4.0977 5.6467 70.1407 38.3474 77.9298 -55.6857 0.0000 -2.6055 -0.0194 0.0000 0.0000 0.0000 -84.8730 18.6855 10.7865 -0.1807 1.0124 -32.3296 -86.5964 65.4528 -7.2924 0.0000 20.2629 -0.5329 0.0000 0.0000 0.0000 
3.3285 95.7915 53.2671 58.5115 -3.6743 -21.2266 -1.8646 5.4854 -175.5715 1.8715 -5.5085 4.4466 1.8696 -5.5022 4.4416 0.0000 0.0000 0.0000 9.0646 -7.9069 7.1788 9.0646 -7.9069 7.1788 0.0000 0.0000 0.0000 25.8669 2.9632 83.1603 76.4766 -41.1183 6.9328 0.9077 5.0723 -90.4775 2.5990 4.4350 -9.5655 97.2663 33.9535 -38.1552 -3.0819 -16.4690 10.7536 0.0000 -11.1691 0.0000 0.0000 0.0003 0.0000 -6.1094 -4.3340 28.7041 -164.3389 -75.4367 160.5913 5.9708 -19.7450 -17.2018 0.0000 -13.7372 0.0000 0.0000 0.0000 0.0000 -2.7938 -2.3590 14.1978 -125.5787 -75.0780 121.7647 8.4975 -55.0749 -10.3274 0.0000 -37.1726 0.0000 0.0000 0.0000 0.0000 0.0000 0.0000 0.0000 -59.5312 -71.8721 61.2298 -21.2495 -71.4514 22.3022 0.0000 -48.8770 0.0000 0.0000 0.0000 0.0000 1.2125 0.3039 -14.0690 -11.9248 -69.4352 15.4395 -15.4570 -50.8463 19.6256 0.0000 -35.1480 0.0000 0.0000 0.0000 0.0000 -3.3757 11.6564 -73.4533 158.0328 -70.8548 141.0863 -51.6762 32.0067 113.0044 -8.9907 40.0751 8.0064 6.1094 -4.3340 -28.7041 -62.5277 -81.1950 61.0120 -4.7328 -46.0815 6.5566 0.0000 -30.9406 0.0000 0.0000 0.0000 0.0000 2.7938 -2.3590 -14.1978 -127.1028 -84.9788 128.7451 9.9530 -59.3686 -11.5267 0.0000 -40.1251 0.0000 0.0000 0.0000 0.0000 0.0000 0.0000 0.0000 0.3316 -90.0000 0.0000 5.2162 -70.6612 -5.5262 0.0000 -47.5067 0.0000 0.0000 0.0000 0.0000 -1.2125 0.3039 14.0690 -72.1115 -83.1790 71.9651 11.7043 -43.7865 -16.6670 0.0000 -30.0974 0.0000 0.0002 0.0000 0.0000 -65.8577 44.9750 67.0688 -0.1949 -38.4079 0.3137 -0.0001 -25.6593 0.0002 0.0000 0.0004 0.0000 32.1269 23.9464 -107.0684 -5.4771 -5.9515 46.2530 16.1830 78.5626 -65.0281 0.0000 -5.3893 -0.1458 0.0000 0.0000 0.0000 -79.5090 20.8951 7.6804 -0.0357 0.7133 -29.7418 -75.7245 82.6217 11.0911 0.0000 24.5072 -0.0020 0.0000 0.0000 0.0000 
3.4174 92.4864 54.9176 61.9130 -3.7287 -24.4707 -1.8612 6.3760 -175.3452 1.8695 -6.4092 4.6783 1.8661 -6.3955 4.6686 0.0000 0.0000 0.0000 9.7788 -6.0090 8.8484 9.7788 -6.0090 8.8484 0.0000 0.0000 0.0000 27.3185 2.1652 85.0445 75.3187 -49.4274 11.9130 3.1254 7.1024 -79.6408 1.8703 7.6134 -9.8526 96.1744 34.2152 -37.6599 -2.6386 -18.2050 8.3913 0.0000 -12.2650 0.0000 0.0000 0.0003 0.0000 -6.1094 -4.3340 28.7041 -161.7881 -74.6618 157.1722 5.4498 -17.6675 -17.4509 0.0000 -12.3148 0.0000 0.0000 0.0000 0.0000 -2.7938 -2.3590 14.1978 -123.5888 -74.0253 119.2340 7.6028 -53.8198 -9.3899 0.0000 -36.2773 0.0000 0.0000 0.0000 0.0000 0.0000 0.0000 0.0000 -61.9239 -71.1986 62.8585 -19.9513 -69.6549 21.1645 0.0000 -47.6297 0.0000 0.0000 0.0000 0.0000 1.2125 0.3039 -14.0690 -13.8781 -68.8288 16.7419 -16.0116 -49.6493 20.6337 0.0000 -34.4723 0.0000 0.0000 0.0000 0.0000 -4.4772 11.7362 -72.9691 163.4504 -71.8959 134.4521 -53.9505 33.4095 106.3424 -6.9731 41.4160 9.1932 6.1094 -4.3340 -28.7041 -70.3623 -81.9782 68.2916 -3.8567 -45.8715 5.3655 0.0000 -30.7575 0.0000 0.0000 0.0000 0.0000 2.7938 -2.3590 -14.1978 -137.8887 -84.3242 139.6756 12.2907 -58.5199 -14.3305 0.0000 -39.7478 0.0000 0.0000 0.0000 0.0000 0.0000 0.0000 0.0000 0.2837 -90.0000 0.0000 9.1667 -69.0774 -9.8017 0.0000 -46.5614 0.0000 0.0000 0.0000 0.0000 -1.2125 0.3039 14.0690 -82.3628 -83.3260 82.9631 13.6136 -43.0361 -19.5377 0.0000 -29.9076 0.0000 0.0002 0.0000 0.0000 -65.3467 46.8370 69.6037 1.2328 -38.4383 -1.9825 0.0000 -25.6906 -0.0001 0.0000 0.0004 0.0000 30.2521 29.1734 -102.8098 -5.6124 -6.3982 42.7157 7.3036 79.6210 -71.6557 0.0000 -5.9394 -0.2494 0.0000 0.0000 0.0000 -76.4568 25.0155 10.5329 -0.4803 2.1470 -35.5656 68.0219 78.3427 157.5602 0.0000 11.1248 -0.0001 0.0000 0.0000 0.0000 
